<svg id="visual" viewBox="0 0 900 600" width="900" height="600" xmlns="http://www.w3.org/2000/svg" xmlns:xlink="http://www.w3.org/1999/xlink" version="1.1"><rect x="0" y="0" width="900" height="600" fill="#931C1C"></rect><path d="M0 407L129 376L257 417L386 394L514 403L643 367L771 365L900 440L900 601L771 601L643 601L514 601L386 601L257 601L129 601L0 601Z" fill="#f5730a"></path><path d="M0 420L129 427L257 408L386 408L514 407L643 469L771 398L900 433L900 601L771 601L643 601L514 601L386 601L257 601L129 601L0 601Z" fill="#da5b09"></path><path d="M0 477L129 489L257 441L386 500L514 497L643 490L771 472L900 464L900 601L771 601L643 601L514 601L386 601L257 601L129 601L0 601Z" fill="#be4407"></path><path d="M0 533L129 521L257 522L386 491L514 493L643 493L771 495L900 528L900 601L771 601L643 601L514 601L386 601L257 601L129 601L0 601Z" fill="#a32d04"></path><path d="M0 551L129 527L257 533L386 559L514 528L643 548L771 547L900 525L900 601L771 601L643 601L514 601L386 601L257 601L129 601L0 601Z" fill="#871400"></path></svg>